<?xml version="1.0" encoding="UTF-8"?>
<svg version="1.1" xmlns="http://www.w3.org/2000/svg" width="132" height="128">
<path d="M0 0 C43.56 0 87.12 0 132 0 C132 42.24 132 84.48 132 128 C88.44 128 44.88 128 0 128 C0 85.76 0 43.52 0 0 Z " fill="#F7D8BB" transform="translate(0,0)"/>
<path d="M0 0 C43.56 0 87.12 0 132 0 C132 42.24 132 84.48 132 128 C88.44 128 44.88 128 0 128 C0 85.76 0 43.52 0 0 Z M20 24 C17.40261431 27.19715445 15.13548676 30.47996688 13 34 C12.61328125 34.6084375 12.2265625 35.216875 11.828125 35.84375 C4.74755248 48.26198487 3.08485248 64.39489314 6.1875 78.125 C11.34273161 96.09671018 20.740787 110.27360714 37.125 119.8125 C51.52470385 127.08849607 67.39061258 129.46539201 83.06640625 124.96875 C99.05728605 119.68813989 112.88231036 111.04757901 120.96142578 95.76220703 C129.4473149 78.81310622 131.53622183 62.12292947 125.68017578 43.91210938 C120.3346004 28.884634 109.36673914 16.65248169 95.125 9.5703125 C68.2115354 -2.27441541 40.36388012 2.20250272 20 24 Z " fill="#FEFEFD" transform="translate(0,0)"/>
<path d="M0 0 C2.9375 0.8125 2.9375 0.8125 5 1.9375 C7.67619466 3.14610404 9.16394706 2.64456588 11.9375 1.8125 C12.8965625 1.255625 12.8965625 1.255625 13.875 0.6875 C17.74496414 -0.95430297 21.29403459 0.56798314 25.0625 2 C28.47914562 2.96557376 28.96856264 2.44062694 31.9375 0.8125 C34.5625 1 34.5625 1 36.9375 1.8125 C39.22012345 5.23643518 39.19418779 6.4946987 39.2121582 10.52148438 C39.22645622 12.27845642 39.22645622 12.27845642 39.24104309 14.07092285 C39.24013168 15.33658081 39.23922028 16.60223877 39.23828125 17.90625 C39.24256638 19.20445679 39.2468515 20.50266357 39.25126648 21.84020996 C39.25872555 24.58736251 39.25843943 27.33438653 39.25317383 30.08154297 C39.24737469 33.6024354 39.26432165 37.12280254 39.2875185 40.64360809 C39.30578757 44.00201109 39.30207088 47.36029752 39.30078125 50.71875 C39.309991 51.98440796 39.31920074 53.25006592 39.32868958 54.55407715 C39.32246078 55.72539185 39.31623199 56.89670654 39.30981445 58.10351562 C39.31044388 59.13593384 39.3110733 60.16835205 39.3117218 61.23205566 C38.9375 63.8125 38.9375 63.8125 37.5978241 65.68493652 C35.9375 66.8125 35.9375 66.8125 33 66.5625 C29.9375 65.8125 29.9375 65.8125 27.9375 65.0625 C25.69903827 64.59007517 25.69903827 64.59007517 23.0625 66.3125 C19.32185708 68.1080086 17.8813067 67.88061432 13.9375 66.8125 C12.9475 66.4 11.9575 65.9875 10.9375 65.5625 C6.93551876 64.56200469 5.53271372 65.97820728 1.9375 67.8125 C-2.31908339 67.59606356 -4.50258224 67.18577851 -8.0625 64.8125 C-10.45638923 65.09052838 -10.45638923 65.09052838 -13.0625 65.8125 C-16.25 66.5 -16.25 66.5 -19.0625 66.8125 C-21.76591915 64.10908085 -21.31577453 62.70665955 -21.32128906 58.92578125 C-21.32759338 57.69110107 -21.33389771 56.4564209 -21.34039307 55.18432617 C-21.33681338 53.831216 -21.33271145 52.47810713 -21.328125 51.125 C-21.32947175 49.74259371 -21.33141236 48.36018787 -21.33392334 46.9777832 C-21.33687418 44.07921849 -21.33257836 41.18077697 -21.32324219 38.28222656 C-21.31184755 34.56289363 -21.31840725 30.84384932 -21.33038712 27.12452698 C-21.33760688 24.26954973 -21.33531728 21.41464115 -21.33013153 18.55966187 C-21.32879535 17.18809983 -21.33044166 15.81653161 -21.33509064 14.44497681 C-21.34015748 12.5297253 -21.33106831 10.61445199 -21.32128906 8.69921875 C-21.31969788 7.60826904 -21.31810669 6.51731934 -21.31646729 5.39331055 C-21.0625 2.8125 -21.0625 2.8125 -19.0625 0.8125 C-16.10070939 1.14158785 -13.35889109 1.72575139 -10.5 2.5625 C-7.93577997 3.07520036 -7.93577997 3.07520036 -5.625 1.3125 C-3.0625 -0.1875 -3.0625 -0.1875 0 0 Z " fill="#F7D7B9" transform="translate(58.0625,31.1875)"/>
<path d="M0 0 C14.26665546 11.00277313 22.67610958 25.57398644 25.3125 43.3125 C26.86641229 60.07003141 21.79981638 76.41993039 11.52734375 89.71484375 C0.94718996 102.12366609 -13.50453861 110.00351668 -29.6875 112.3125 C-46.57538275 113.61650107 -62.2134666 109.41659606 -75.69140625 98.98828125 C-89.15977201 87.31569759 -97.27962326 71.83766732 -99.0078125 54.0078125 C-99.58804061 36.94910593 -94.07706176 21.36295588 -82.875 8.4375 C-78.25796869 3.6242974 -73.38236824 -0.23261327 -67.6875 -3.6875 C-67.0790625 -4.07421875 -66.470625 -4.4609375 -65.84375 -4.859375 C-45.28320467 -16.58249295 -18.93725242 -13.08200167 0 0 Z M-81.6875 12.3125 C-93.05140673 26.95693075 -96.00772251 42.26466261 -94.6875 60.3125 C-92.04341013 75.07407601 -83.84530385 88.20615148 -72.01953125 97.3828125 C-56.91454938 107.45280042 -40.7357009 110.82881029 -22.87109375 107.62890625 C-7.42246524 103.14861808 5.55781645 94.15696446 13.8125 80.1875 C21.43940721 65.56926118 24.3765841 49.4185846 19.6875 33.25 C13.56201604 16.59634048 3.28114762 4.415393 -12.875 -3.1875 C-37.24893972 -13.70174851 -63.74476941 -6.99969133 -81.6875 12.3125 Z " fill="#E88631" transform="translate(103.6875,14.6875)"/>
<path d="M0 0 C2.9375 0.8125 2.9375 0.8125 5 1.9375 C7.67619466 3.14610404 9.16394706 2.64456588 11.9375 1.8125 C12.8965625 1.255625 12.8965625 1.255625 13.875 0.6875 C17.74496414 -0.95430297 21.29403459 0.56798314 25.0625 2 C28.47914562 2.96557376 28.96856264 2.44062694 31.9375 0.8125 C34.5625 1 34.5625 1 36.9375 1.8125 C39.22012345 5.23643518 39.19418779 6.4946987 39.2121582 10.52148438 C39.22645622 12.27845642 39.22645622 12.27845642 39.24104309 14.07092285 C39.24013168 15.33658081 39.23922028 16.60223877 39.23828125 17.90625 C39.24256638 19.20445679 39.2468515 20.50266357 39.25126648 21.84020996 C39.25872555 24.58736251 39.25843943 27.33438653 39.25317383 30.08154297 C39.24737469 33.6024354 39.26432165 37.12280254 39.2875185 40.64360809 C39.30578757 44.00201109 39.30207088 47.36029752 39.30078125 50.71875 C39.309991 51.98440796 39.31920074 53.25006592 39.32868958 54.55407715 C39.32246078 55.72539185 39.31623199 56.89670654 39.30981445 58.10351562 C39.31044388 59.13593384 39.3110733 60.16835205 39.3117218 61.23205566 C38.9375 63.8125 38.9375 63.8125 37.5978241 65.68493652 C35.9375 66.8125 35.9375 66.8125 33 66.5625 C29.9375 65.8125 29.9375 65.8125 27.9375 65.0625 C25.69903827 64.59007517 25.69903827 64.59007517 23.0625 66.3125 C19.32185708 68.1080086 17.8813067 67.88061432 13.9375 66.8125 C12.9475 66.4 11.9575 65.9875 10.9375 65.5625 C6.93551876 64.56200469 5.53271372 65.97820728 1.9375 67.8125 C-2.31908339 67.59606356 -4.50258224 67.18577851 -8.0625 64.8125 C-10.45638923 65.09052838 -10.45638923 65.09052838 -13.0625 65.8125 C-16.25 66.5 -16.25 66.5 -19.0625 66.8125 C-21.76591915 64.10908085 -21.31577453 62.70665955 -21.32128906 58.92578125 C-21.32759338 57.69110107 -21.33389771 56.4564209 -21.34039307 55.18432617 C-21.33681338 53.831216 -21.33271145 52.47810713 -21.328125 51.125 C-21.32947175 49.74259371 -21.33141236 48.36018787 -21.33392334 46.9777832 C-21.33687418 44.07921849 -21.33257836 41.18077697 -21.32324219 38.28222656 C-21.31184755 34.56289363 -21.31840725 30.84384932 -21.33038712 27.12452698 C-21.33760688 24.26954973 -21.33531728 21.41464115 -21.33013153 18.55966187 C-21.32879535 17.18809983 -21.33044166 15.81653161 -21.33509064 14.44497681 C-21.34015748 12.5297253 -21.33106831 10.61445199 -21.32128906 8.69921875 C-21.31969788 7.60826904 -21.31810669 6.51731934 -21.31646729 5.39331055 C-21.0625 2.8125 -21.0625 2.8125 -19.0625 0.8125 C-16.10070939 1.14158785 -13.35889109 1.72575139 -10.5 2.5625 C-7.93577997 3.07520036 -7.93577997 3.07520036 -5.625 1.3125 C-3.0625 -0.1875 -3.0625 -0.1875 0 0 Z M-4.9375 5.8125 C-8.7353669 7.59973148 -12.17362874 7.10879042 -16.0625 5.8125 C-16.0625 24.2925 -16.0625 42.7725 -16.0625 61.8125 C-11.6075 61.3175 -11.6075 61.3175 -7.0625 60.8125 C-5.7425 61.4725 -4.4225 62.1325 -3.0625 62.8125 C-0.08725039 62.51497504 2.25991195 62.15129403 4.9375 60.8125 C11.25608407 60.46146755 11.25608407 60.46146755 14 61.875 C16.8977325 63.27712863 18.85910905 62.55131383 21.9375 61.8125 C22.9275 61.420625 23.9175 61.02875 24.9375 60.625 C27.9375 59.8125 27.9375 59.8125 33.9375 61.8125 C33.9375 43.3325 33.9375 24.8525 33.9375 5.8125 C30.6375 6.1425 27.3375 6.4725 23.9375 6.8125 C22.6175 6.1525 21.2975 5.4925 19.9375 4.8125 C16.96225039 5.11002496 14.61508805 5.47370597 11.9375 6.8125 C7.55924619 7.05573632 4.75700923 6.91981544 0.9375 4.8125 C-2.82843137 4.49877451 -2.82843137 4.49877451 -4.9375 5.8125 Z " fill="#E8842E" transform="translate(58.0625,31.1875)"/>
<path d="M0 0 C2.25 0.2578125 2.25 0.2578125 4 1 C2.37938967 4.99432781 -0.39339173 7.79558321 -3.375 10.8125 C-4.09816406 11.5849707 -4.09816406 11.5849707 -4.8359375 12.37304688 C-8.40076716 15.99115523 -8.40076716 15.99115523 -11.1171875 16.03125 C-13.34019434 14.81366949 -14.95435643 13.47930672 -16.75 11.6875 C-17.36359375 11.09324219 -17.9771875 10.49898437 -18.609375 9.88671875 C-20 8 -20 8 -20 4 C-17.05833742 4.42023751 -16.08790323 4.90660282 -14 7.125 C-13.34 7.74375 -12.68 8.3625 -12 9 C-7.22823206 8.68188214 -4.96830593 4.96812662 -2 1.6171875 C-1.34 1.08351562 -0.68 0.54984375 0 0 Z " fill="#E78027" transform="translate(77,47)"/>
<path d="M0 0 C6.27 0 12.54 0 19 0 C19 1.32 19 2.64 19 4 C12.73 4 6.46 4 0 4 C0 2.68 0 1.36 0 0 Z " fill="#E77E24" transform="translate(57,75)"/>
<path d="M0 0 C6.27 0 12.54 0 19 0 C19 1.32 19 2.64 19 4 C12.73 4 6.46 4 0 4 C0 2.68 0 1.36 0 0 Z " fill="#E77E24" transform="translate(57,67)"/>
</svg>
